# AST/ASF file generated using VICON BodyLanguage
# -----------------------------------------------
:version 1.10
:name VICON
:units
  mass 1.0
  length 0.45
  angle deg
:documentation
   .ast/.asf automatically generated from VICON data using
   VICON BodyBuilder and BodyLanguage model FoxedUp or BRILLIANT.MOD
:root
   order TX TY TZ RX RY RZ
   axis XYZ
   position 0 0 0  
   orientation 0 0 0 
:bonedata
  begin
     id 1 
     name lhipjoint
     direction 0.78388 -0.462562 0.414208 
     length 3.01181 
     axis 0 0 0  XYZ
  end
  begin
     id 2 
     name lfemur
     direction 0.34202 -0.939693 0  
     length 6.04673  
     axis 0 0 20  XYZ
    dof rx ry rz
    limits (-160.0 20.0)
           (-70.0 70.0)
           (-60.0 70.0)
  end
  begin
     id 3 
     name ltibia
     direction 0.34202 -0.939693 0   
     length 7.211   
     axis 0 0 20   XYZ
    dof rx
    limits (-10.0 170.0)
  end
  begin
     id 4 
     name lfoot
     direction 0.121887 -0.334882 0.934344   
     length 2.13567   
     axis -90 7.62852e-016 20   XYZ
    dof rx rz
    limits (-45.0 90.0)
           (-70.0 20.0)
  end
  begin
     id 5 
     name ltoes
     direction 1.53555e-011 -4.2179e-011 1   
     length 1.05957   
     axis -90 7.62852e-016 20   XYZ
    dof rx
    limits (-90.0 20.0)
  end
  begin
     id 6 
     name rhipjoint
     direction -0.769387 -0.475875 0.426129   
     length 2.92756  
     axis 0 0 0  XYZ 
  end
  begin
     id 7 
     name rfemur
     direction -0.34202 -0.939693 0   
     length 6.35468   
     axis 0 0 -20   XYZ
    dof rx ry rz
    limits (-160.0 20.0)
           (-70.0 70.0)
           (-70.0 60.0)
  end
  begin
     id 8 
     name rtibia
     direction -0.34202 -0.939693 0   
     length 7.37886   
     axis 0 0 -20   XYZ
    dof rx
    limits (-10.0 170.0)
 end
 begin
     id 9 
     name rfoot
     direction -0.101763 -0.279592 0.954711   
     length 2.21478  
     axis -90 -7.62852e-016 -20   XYZ
    dof rx rz
    limits (-45.0 90.0)
           (-20.0 70.0)
  end
  begin
     id 10 
     name rtoes
     direction -1.53494e-011 -4.21851e-011 1   
     length 1.10506   
     axis -90 -7.62852e-016 -20   XYZ
    dof rx
    limits (-90.0 20.0)
  end
  begin
     id 11 
     name lowerback
     direction 0.00747405 0.999267 0.0375481   
     length 2.13259   
     axis 0 0 0   XYZ
    dof rx ry rz
    limits (-20.0 45.0)
           (-30.0 30.0)
           (-30.0 30.0)
  end
  begin
     id 12 
     name upperback
     direction 0.00661626 0.996177 0.0871029   
     length 2.10528   
     axis 0 0 0   XYZ
    dof rx ry rz
    limits (-20.0 45.0)
           (-30.0 30.0)
           (-30.0 30.0)
  end
  begin
     id 13 
     name thorax
     direction 0.00320659 0.997679 0.0680167   
     length 2.11338   
     axis 0 0 0   XYZ
    dof rx ry rz
    limits (-20.0 45.0)
           (-30.0 30.0)
           (-30.0 30.0)
  end
  begin
     id 14 
     name lowerneck
     direction 0.0374841 0.973033 0.227602   
     length 1.42765   
     axis 0 0 0   XYZ
    dof rx ry rz
    limits (-20.0 45.0)
           (-30.0 30.0)
           (-30.0 30.0)
  end
  begin
     id 15 
     name upperneck
     direction 0.00481585 0.989155 -0.146795   
     length 1.47593   
     axis 0 0 0   XYZ
    dof rx ry rz
    limits (-20.0 45.0)
           (-30.0 30.0)
           (-30.0 30.0)
  end
  begin
     id 16
     name head
     direction -0.00292522 0.997206 -0.0746423  
     length 1.48116  
     axis 0 0 0   XYZ
    dof rx ry rz
    limits (-20.0 45.0)
           (-30.0 30.0)
           (-30.0 30.0)
  end
  begin
     id 17 
     name lclavicle
     direction 0.951444 0.305606 0.0368784  
     length 3.01855  
     axis 0 0 0   XYZ
    dof ry rz
    limits (-20.0 10.0)
           (0.0 20.0)
  end
  begin
     id 18 
     name lhumerus
     direction 1 -4.48977e-011 2.61664e-027   
     length 5.52731   
     axis 180 -30 -90   XYZ
    dof rx ry rz
    limits (-60.0 90.0)
           (-90.0 90.0)
           (-90.0 90.0)
  end
  begin
     id 19
     name lradius
     direction 1 -4.48944e-011 8.22157e-027   
     length 3.11059   
     axis 180 -30 -90   XYZ
    dof rx
    limits (-10.0 170.0)
  end
  begin
     id 20
     name lwrist
     direction 1 -4.48976e-011 1.5779e-026   
     length 1.5553   
     axis -1.15221e-014 90 90   XYZ
    dof ry
    limits (-180.0 0.0)
 end
  begin
     id 21 
     name lhand
     direction 1 -4.49025e-011 3.1558e-026   
     length 0.419626   
     axis -2.01367e-014 90 90   XYZ
    dof rx rz
    limits (-90.0 90.0)
           (-45.0 45.0)
  end
  begin
     id 22 
     name lfingers
     direction 1 -4.4904e-011 6.31161e-026   
     length 0.338313   
     axis -4.02734e-014 90 90   XYZ
    dof rx
    limits (0.0 90.0)
  end
  begin
     id 23
     name lthumb
     direction 0.707107 -6.35004e-011 0.707107   
     length 0.485752   
     axis -90 45 2.85299e-015   XYZ
    dof rx rz
    limits (-45.0 45.0)
           (-45.0 45.0)
  end
  begin
     id 24 
     name rclavicle
     direction -0.968876 0.223791 0.105816   
     length 3.04177  
     axis 0 0 0   XYZ 
    dof ry rz
    limits (-10.0 20.0)
           (-20.0 0.0)
  end
  begin
     id 25 
     name rhumerus
     direction -1 -4.48962e-011 -1.01384e-027  
     length 5.25396   
     axis 180 30 90   XYZ
    dof rx ry rz
    limits (-90.0 60.0)
           (-90.0 90.0)
           (-90.0 90.0)
  end
  begin
     id 26 
     name rradius
     direction -1 -4.48955e-011 8.88542e-027   
     length 3.10567   
     axis 180 30 90   XYZ
    dof rx
    limits (-10.0 170.0)
  end
  begin
     id 27 
     name rwrist
     direction -1 -4.48994e-011 1.5779e-026   
     length 1.55283   
     axis -1.15221e-014 -90 -90   XYZ
    dof ry
    limits (-180.0 0.0)
  end
  begin
     id 28
     name rhand
     direction -1 -4.48891e-011 3.1558e-026   
     length 0.498676   
     axis -2.01367e-014 -90 -90   XYZ
    dof rx rz
    limits (-90.0 90.0)
           (-45.0 45.0)
  end
  begin
     id 29
     name rfingers
     direction -1 -4.48972e-011 6.31161e-026   
     length 0.402045   
     axis -4.02734e-014 -90 -90   XYZ
    dof rx
    limits (0.0 90.0)
  end
  begin
     id 30
     name rthumb
     direction -0.707107 -6.34849e-011 0.707107   
     length 0.577259   
     axis -90 -45 -2.85299e-015   XYZ
    dof rx rz
    limits (-45.0 45.0)
           (-45.0 45.0)
  end
:hierarchy
  begin
    root lhipjoint rhipjoint lowerback
    lhipjoint lfemur
    lfemur ltibia
    ltibia lfoot
    lfoot ltoes
    rhipjoint rfemur
    rfemur rtibia
    rtibia rfoot
    rfoot rtoes
    lowerback upperback
    upperback thorax
    thorax lowerneck lclavicle rclavicle
    lowerneck upperneck
    upperneck head
    lclavicle lhumerus
    lhumerus lradius
    lradius lwrist
    lwrist lhand lthumb
    lhand lfingers
    rclavicle rhumerus
    rhumerus rradius
    rradius rwrist
    rwrist rhand rthumb
    rhand rfingers
  end

#!OML:ASF H:\Pregnant\Project 1\Capture day 1\Session 1\femalepreg.ASF
:FULLY-SPECIFIED
:DEGREES
250
root -1.10392 16.0357 -4.45224 15.1324 -0.959211 -0.641628
lowerback -9.10574 2.76041 10.8799
upperback -5.80373 2.85428 2.89712
thorax -0.644141 1.19958 -2.8062
lowerneck -19.6831 3.407 5.18277
upperneck 22.8905 5.36717 -8.14726
head 11.0392 1.90211 -3.00915
rclavicle 9.93923e-016 2.70347e-014
rhumerus -31.4836 -0.407797 -77.6726
rradius 26.3625
rwrist -13.3603
rhand -21.206 -22.7795
rfingers 7.12502
rthumb 5.17541 -52.6963
lclavicle 9.93923e-016 2.70347e-014
lhumerus -50.0921 -5.35048 87.2844
lradius 29.7639
lwrist 40.354
lhand -15.7997 -3.13993
lfingers 7.12502
lthumb 10.3933 26.5832
rfemur -37.7334 16.2333 17.2487
rtibia 34.1634
rfoot -11.323 -11.594
rtoes -11.6539
lfemur -32.3263 -6.58764 -20.1917
ltibia 56.8956
lfoot -9.55617 -2.47661
ltoes -22.8095
251
root -1.09791 16.0338 -4.52368 15.256 -0.744415 -0.637277
lowerback -9.32475 2.54669 10.6415
upperback -5.84663 2.56221 2.98798
thorax -0.616567 1.06145 -2.60224
lowerneck -19.6683 3.44792 5.2791
upperneck 22.8693 5.43584 -8.3041
head 11.0423 1.92294 -3.07227
rclavicle -9.59136e-015 -2.54444e-014
rhumerus -31.9473 -0.867259 -77.3136
rradius 25.8089
rwrist -12.8289
rhand -21.4951 -22.9948
rfingers 7.12502
rthumb 4.89633 -52.9182
lclavicle -9.59136e-015 -2.54444e-014
lhumerus -49.7687 -5.5927 87.2701
lradius 29.7877
lwrist 40.6377
lhand -16.9277 -3.46331
lfingers 7.12502
lthumb 9.30509 26.3113
rfemur -38.1447 16.1697 17.0924
rtibia 34.151
rfoot -11.0748 -11.72
rtoes -11.77
lfemur -31.509 -6.77137 -20.1922
ltibia 56.4173
lfoot -9.78949 -2.80497
ltoes -22.5681
252
root -1.09191 16.0318 -4.59647 15.3951 -0.505659 -0.62141
lowerback -9.5525 2.31877 10.3787
upperback -5.8915 2.25331 3.07379
thorax -0.585531 0.915557 -2.39234
lowerneck -19.6622 3.49444 5.36605
upperneck 22.8183 5.50804 -8.44384
head 11.0356 1.94684 -3.12628
rclavicle 3.56322e-014 5.56597e-014
rhumerus -32.4205 -1.29527 -76.9584
rradius 25.3168
rwrist -12.3023
rhand -21.834 -23.2255
rfingers 7.12502
rthumb 4.56909 -53.1562
lclavicle 3.56322e-014 5.56597e-014
lhumerus -49.4165 -5.85013 87.2474
lradius 29.7838
lwrist 40.8711
lhand -17.908 -3.84187
lfingers 7.12502
lthumb 8.35909 25.9727
rfemur -38.5798 16.0912 16.9181
rtibia 34.1504
rfoot -10.8324 -11.8697
rtoes -11.9037
lfemur -30.6956 -6.97316 -20.197
ltibia 55.8291
lfoot -9.99864 -3.12727
ltoes -22.324
253
root -1.08569 16.0297 -4.67038 15.5486 -0.253674 -0.598215
lowerback -9.78244 2.07998 10.0962
upperback -5.94394 1.93318 3.1543
thorax -0.559345 0.76404 -2.17917
lowerneck -19.6788 3.57776 5.5022
upperneck 22.7425 5.61488 -8.58743
head 11.0288 1.99021 -3.18392
rclavicle 3.06625e-014 -1.74931e-014
rhumerus -32.9125 -1.68664 -76.6089
rradius 24.8849
rwrist -11.7677
rhand -22.1712 -23.5137
rfingers 7.12502
rthumb 4.24342 -53.4512
lclavicle 3.06625e-014 -1.74931e-014
lhumerus -49.055 -6.1254 87.2187
lradius 29.7698
lwrist 41.0729
lhand -18.7639 -4.2044
lfingers 7.12502
lthumb 7.53301 25.6415
rfemur -39.037 16.0099 16.7257
rtibia 34.1582
rfoot -10.5934 -12.049
rtoes -12.0611
lfemur -29.8818 -7.18155 -20.2059
ltibia 55.1256
lfoot -10.1674 -3.44983
ltoes -22.0982
254
root -1.07912 16.0272 -4.74458 15.6986 0.00511604 -0.572298
lowerback -10.0037 1.83001 9.79829
upperback -5.99608 1.60187 3.23402
thorax -0.535279 0.607244 -1.96051
lowerneck -19.742 3.68448 5.65933
upperneck 22.6667 5.74453 -8.72523
head 11.0337 2.04531 -3.23909
rclavicle 9.44227e-015 -6.04305e-014
rhumerus -33.4198 -2.02971 -76.2653
rradius 24.5168
rwrist -11.2337
rhand -22.4963 -23.801
rfingers 7.12502
rthumb 3.92955 -53.7445
lclavicle 9.44227e-015 -6.04305e-014
lhumerus -48.6828 -6.41826 87.195
lradius 29.759
lwrist 41.2813
lhand -19.5443 -4.48037
lfingers 7.12502
lthumb 6.77973 25.3911
rfemur -39.4909 15.916 16.5321
rtibia 34.1725
rfoot -10.3625 -12.2393
rtoes -12.2439
lfemur -29.0412 -7.38724 -20.2189
ltibia 54.3016
lfoot -10.2758 -3.78157
ltoes -21.92
255
root -1.07219 16.0244 -4.81804 15.8313 0.259138 -0.548554
lowerback -10.2109 1.57633 9.49014
upperback -6.04703 1.26947 3.31104
thorax -0.513871 0.450019 -1.74022
lowerneck -19.8339 3.83837 5.85285
upperneck 22.6069 5.92301 -8.83961
head 11.0552 2.12772 -3.28406
rclavicle 9.59136e-015 4.77083e-015
rhumerus -33.9571 -2.31553 -75.934
rradius 24.2144
rwrist -10.762
rhand -22.8233 -24.0202
rfingers 7.12502
rthumb 3.61371 -53.9693
lclavicle 9.59136e-015 4.77083e-015
lhumerus -48.3008 -6.73245 87.1751
lradius 29.7436
lwrist 41.5024
lhand -20.2653 -4.68732
lfingers 7.12502
lthumb 6.08366 25.2053
rfemur -39.921 15.8249 16.3433
rtibia 34.1875
rfoot -10.1433 -12.444
rtoes -12.4346
lfemur -28.1501 -7.57556 -20.2366
ltibia 53.3493
lfoot -10.2905 -4.13852
ltoes -21.7933
256
root -1.06443 16.021 -4.89093 15.9422 0.506619 -0.532025
lowerback -10.4062 1.31719 9.17471
upperback -6.08717 0.932167 3.39248
thorax -0.483996 0.291156 -1.51267
lowerneck -19.9312 3.99619 6.05528
upperneck 22.5372 6.10227 -8.95253
head 11.075 2.21132 -3.32942
rclavicle -1.12065e-014 -1.90833e-014
rhumerus -34.5082 -2.53462 -75.6124
rradius 23.9815
rwrist -10.3468
rhand -23.1338 -24.1489
rfingers 7.12502
rthumb 3.31391 -54.1029
lclavicle -1.12065e-014 -1.90833e-014
lhumerus -47.9046 -7.07099 87.1766
lradius 29.7456
lwrist 41.7677
lhand -20.9607 -4.77977
lfingers 7.12502
lthumb 5.41226 25.1311
rfemur -40.3215 15.7299 16.1679
rtibia 34.2019
rfoot -9.94008 -12.6523
rtoes -12.6321
lfemur -27.2063 -7.74374 -20.2558
ltibia 52.2677
lfoot -10.1691 -4.53567
ltoes -21.7075
257
root -1.05597 16.017 -4.96336 16.034 0.749358 -0.52507
lowerback -10.5926 1.05446 8.85431
upperback -6.11581 0.591811 3.47675
thorax -0.443015 0.131515 -1.28063
lowerneck -20.0151 4.14157 6.24618
upperneck 22.4585 6.26425 -9.05553
head 11.087 2.28763 -3.37163
rclavicle 4.44781e-015 9.54166e-015
rhumerus -35.0684 -2.69512 -75.3026
rradius 23.8181
rwrist -10.0022
rhand -23.4066 -24.2076
rfingers 7.12502
rthumb 3.05045 -54.1655
lclavicle 4.44781e-015 9.54166e-015
lhumerus -47.496 -7.43745 87.196
lradius 29.7786
lwrist 42.076
lhand -21.6508 -4.71656
lfingers 7.12502
lthumb 4.74597 25.2103
rfemur -40.6942 15.633 16.0078
rtibia 34.2133
rfoot -9.75175 -12.8657
rtoes -12.8165
lfemur -26.2153 -7.89202 -20.2732
ltibia 51.0546
lfoot -9.88848 -4.98577
ltoes -21.6499
258
root -1.04686 16.0124 -5.03649 16.1194 0.999372 -0.52679
lowerback -10.7765 0.785727 8.52613
upperback -6.13457 0.244768 3.56536
thorax -0.38911 -0.0306859 -1.04134
lowerneck -20.0693 4.25198 6.4077
upperneck 22.3601 6.3842 -9.15445
head 11.0816 2.34373 -3.41379
rclavicle 8.39865e-015 -6.04305e-014
rhumerus -35.6297 -2.79217 -75.0082
rradius 23.7267
rwrist -9.74255
rhand -23.6282 -24.2051
rfingers 7.12502
rthumb 2.8364 -54.166
lclavicle 8.39865e-015 -6.04305e-014
lhumerus -47.0639 -7.82633 87.2295
lradius 29.8317
lwrist 42.4057
lhand -22.3193 -4.54392
lfingers 7.12502
lthumb 4.10041 25.3964
rfemur -41.0579 15.5245 15.8593
rtibia 34.2251
rfoot -9.57959 -13.0873
rtoes -12.9898
lfemur -25.2034 -8.03 -20.283
ltibia 49.715
lfoot -9.50496 -5.50249
ltoes -21.7947
